<svg width="512" height="512" viewBox="0 0 512 512" fill="none" xmlns="http://www.w3.org/2000/svg">
<path d="M0 0H512V512H0V0Z" fill="#E0E0E0"/>
<path d="M150.07 220.691V291.309H79.4492V220.691H150.07Z" fill="#F47D00"/>
<path d="M150.07 370.758V441.379H79.4492V370.758H150.07Z" fill="#9C0945"/>
<path d="M229.516 88.2773H432.551V123.586H229.516V88.2773Z" fill="#232735"/>
<path d="M229.516 238.344H432.551V273.656H229.516V238.344Z" fill="#232735"/>
<path d="M229.516 388.414H432.551V423.723H229.516V388.414Z" fill="#232735"/>
<path d="M105.93 150.07C103.672 150.07 101.41 149.203 99.6914 147.484L73.207 121C69.7539 117.547 69.7539 111.969 73.207 108.516C76.6484 105.066 82.2461 105.066 85.6875 108.516L112.172 135C115.625 138.453 115.625 144.031 112.172 147.484C110.449 149.203 108.191 150.07 105.93 150.07Z" fill="#00D077"/>
<path d="M105.922 150.07C104.148 150.07 102.355 149.531 100.793 148.426C96.828 145.594 95.9101 140.074 98.746 136.113L142.883 74.3203C145.719 70.3477 151.234 69.4453 155.199 72.2617C159.16 75.0977 160.078 80.6133 157.246 84.5781L113.109 146.371C111.394 148.781 108.676 150.07 105.922 150.07Z" fill="#00D077"/>
</svg>
