<svg width="2119" height="512" viewBox="0 0 2119 512" fill="none" xmlns="http://www.w3.org/2000/svg">
<path d="M0 0H512V512H0V0Z" fill="#E0E0E0"/>
<path d="M150.07 220.691V291.309H79.4492V220.691H150.07Z" fill="#F47D00"/>
<path d="M150.07 370.758V441.379H79.4492V370.758H150.07Z" fill="#9C0945"/>
<path d="M229.516 88.2773H432.551V123.586H229.516V88.2773Z" fill="#232735"/>
<path d="M229.516 238.344H432.551V273.656H229.516V238.344Z" fill="#232735"/>
<path d="M229.516 388.414H432.551V423.723H229.516V388.414Z" fill="#232735"/>
<path d="M105.93 150.07C103.672 150.07 101.41 149.203 99.6914 147.484L73.207 121C69.7539 117.547 69.7539 111.969 73.207 108.516C76.6484 105.066 82.2461 105.066 85.6875 108.516L112.172 135C115.625 138.453 115.625 144.031 112.172 147.484C110.449 149.203 108.191 150.07 105.93 150.07Z" fill="#00D077"/>
<path d="M105.922 150.07C104.148 150.07 102.356 149.531 100.793 148.426C96.8282 145.594 95.9102 140.074 98.7461 136.113L142.883 74.3203C145.719 70.3477 151.234 69.4453 155.199 72.2617C159.16 75.0977 160.078 80.6133 157.246 84.5781L113.109 146.371C111.395 148.781 108.676 150.07 105.922 150.07Z" fill="#00D077"/>
<path d="M824.5 299.5C824.5 320.167 821.333 338.667 815 355C808.667 371 799.667 384.5 788 395.5C776.667 406.5 763 414.833 747 420.5C731 426.167 713.167 429 693.5 429C673.833 429 656 426 640 420C624 414 610.167 405.5 598.5 394.5C587.167 383.167 578.333 369.5 572 353.5C565.667 337.5 562.5 319.5 562.5 299.5C562.5 279.833 565.667 262 572 246C578.333 230 587.167 216.5 598.5 205.5C610.167 194.167 624 185.5 640 179.5C656 173.5 673.833 170.5 693.5 170.5C713.167 170.5 731 173.667 747 180C763 186 776.667 194.667 788 206C799.667 217 808.667 230.5 815 246.5C821.333 262.5 824.5 280.167 824.5 299.5ZM649.5 299.5C649.5 319.833 653.333 335.5 661 346.5C669 357.167 680 362.5 694 362.5C708 362.5 718.667 357 726 346C733.667 335 737.5 319.5 737.5 299.5C737.5 279.5 733.667 264.167 726 253.5C718.333 242.5 707.5 237 693.5 237C679.5 237 668.667 242.5 661 253.5C653.333 264.167 649.5 279.5 649.5 299.5ZM1019.97 267C1019.97 256.667 1016.97 249.167 1010.97 244.5C1005.3 239.5 997.469 237 987.469 237C980.802 237 974.135 237.833 967.469 239.5C961.135 241.167 955.635 243.667 950.969 247V420.5C947.635 421.5 942.302 422.5 934.969 423.5C927.969 424.5 920.635 425 912.969 425C905.635 425 898.969 424.5 892.969 423.5C887.302 422.5 882.469 420.5 878.469 417.5C874.469 414.5 871.302 410.5 868.969 405.5C866.969 400.167 865.969 393.333 865.969 385V235C865.969 226 867.802 218.667 871.469 213C875.469 207.333 880.802 202.167 887.469 197.5C898.802 189.5 912.969 183 929.969 178C947.302 173 966.469 170.5 987.469 170.5C1025.14 170.5 1054.14 178.833 1074.47 195.5C1094.8 211.833 1104.97 234.667 1104.97 264V420.5C1101.64 421.5 1096.3 422.5 1088.97 423.5C1081.97 424.5 1074.64 425 1066.97 425C1059.64 425 1052.97 424.5 1046.97 423.5C1041.3 422.5 1036.47 420.5 1032.47 417.5C1028.47 414.5 1025.3 410.5 1022.97 405.5C1020.97 400.167 1019.97 393.333 1019.97 385V267ZM1285.97 429C1266.31 429 1247.97 426.333 1230.97 421C1214.31 415.333 1199.64 407 1186.97 396C1174.64 385 1164.81 371.167 1157.47 354.5C1150.47 337.833 1146.97 318.333 1146.97 296C1146.97 274 1150.47 255.167 1157.47 239.5C1164.81 223.5 1174.31 210.5 1185.97 200.5C1197.64 190.167 1210.97 182.667 1225.97 178C1240.97 173 1256.31 170.5 1271.97 170.5C1289.64 170.5 1305.64 173.167 1319.97 178.5C1334.64 183.833 1347.14 191.167 1357.47 200.5C1368.14 209.833 1376.31 221 1381.97 234C1387.97 247 1390.97 261.167 1390.97 276.5C1390.97 287.833 1387.81 296.5 1381.47 302.5C1375.14 308.5 1366.31 312.333 1354.97 314L1231.47 332.5C1235.14 343.5 1242.64 351.833 1253.97 357.5C1265.31 362.833 1278.31 365.5 1292.97 365.5C1306.64 365.5 1319.47 363.833 1331.47 360.5C1343.81 356.833 1353.81 352.667 1361.47 348C1366.81 351.333 1371.31 356 1374.97 362C1378.64 368 1380.47 374.333 1380.47 381C1380.47 396 1373.47 407.167 1359.47 414.5C1348.81 420.167 1336.81 424 1323.47 426C1310.14 428 1297.64 429 1285.97 429ZM1271.97 232.5C1263.97 232.5 1256.97 233.833 1250.97 236.5C1245.31 239.167 1240.64 242.667 1236.97 247C1233.31 251 1230.47 255.667 1228.47 261C1226.81 266 1225.81 271.167 1225.47 276.5L1310.97 262.5C1309.97 255.833 1306.31 249.167 1299.97 242.5C1293.64 235.833 1284.31 232.5 1271.97 232.5ZM1518.39 420.5C1514.72 421.167 1509.22 422 1501.89 423C1494.89 424.333 1487.72 425 1480.39 425C1473.05 425 1466.39 424.5 1460.39 423.5C1454.72 422.5 1449.89 420.5 1445.89 417.5C1441.89 414.5 1438.72 410.5 1436.39 405.5C1434.39 400.167 1433.39 393.333 1433.39 385V95C1437.05 94.3333 1442.39 93.5 1449.39 92.5C1456.72 91.1667 1464.05 90.5 1471.39 90.5C1478.72 90.5 1485.22 91 1490.89 92C1496.89 93 1501.89 95 1505.89 98C1509.89 101 1512.89 105.167 1514.89 110.5C1517.22 115.5 1518.39 122.167 1518.39 130.5V420.5ZM1570.02 110.5C1570.02 97.8333 1574.19 87.1666 1582.52 78.5C1591.19 69.8333 1602.52 65.5 1616.52 65.5C1630.52 65.5 1641.69 69.8333 1650.02 78.5C1658.69 87.1666 1663.02 97.8333 1663.02 110.5C1663.02 123.167 1658.69 133.833 1650.02 142.5C1641.69 151.167 1630.52 155.5 1616.52 155.5C1602.52 155.5 1591.19 151.167 1582.52 142.5C1574.19 133.833 1570.02 123.167 1570.02 110.5ZM1659.02 420.5C1655.36 421.167 1649.86 422 1642.52 423C1635.52 424.333 1628.36 425 1621.02 425C1613.69 425 1607.02 424.5 1601.02 423.5C1595.36 422.5 1590.52 420.5 1586.52 417.5C1582.52 414.5 1579.36 410.5 1577.02 405.5C1575.02 400.167 1574.02 393.333 1574.02 385V181.5C1577.69 180.833 1583.02 180 1590.02 179C1597.36 177.667 1604.69 177 1612.02 177C1619.36 177 1625.86 177.5 1631.52 178.5C1637.52 179.5 1642.52 181.5 1646.52 184.5C1650.52 187.5 1653.52 191.667 1655.52 197C1657.86 202 1659.02 208.667 1659.02 217V420.5ZM1918.14 348.5C1918.14 373.833 1908.64 393.667 1889.64 408C1870.64 422.333 1842.64 429.5 1805.64 429.5C1791.64 429.5 1778.64 428.5 1766.64 426.5C1754.64 424.5 1744.3 421.5 1735.64 417.5C1727.3 413.167 1720.64 407.833 1715.64 401.5C1710.97 395.167 1708.64 387.667 1708.64 379C1708.64 371 1710.3 364.333 1713.64 359C1716.97 353.333 1720.97 348.667 1725.64 345C1735.3 350.333 1746.3 355.167 1758.64 359.5C1771.3 363.5 1785.8 365.5 1802.14 365.5C1812.47 365.5 1820.3 364 1825.64 361C1831.3 358 1834.14 354 1834.14 349C1834.14 344.333 1832.14 340.667 1828.14 338C1824.14 335.333 1817.47 333.167 1808.14 331.5L1793.14 328.5C1764.14 322.833 1742.47 314 1728.14 302C1714.14 289.667 1707.14 272.167 1707.14 249.5C1707.14 237.167 1709.8 226 1715.14 216C1720.47 206 1727.97 197.667 1737.64 191C1747.3 184.333 1758.8 179.167 1772.14 175.5C1785.8 171.833 1800.8 170 1817.14 170C1829.47 170 1840.97 171 1851.64 173C1862.64 174.667 1872.14 177.333 1880.14 181C1888.14 184.667 1894.47 189.5 1899.14 195.5C1903.8 201.167 1906.14 208 1906.14 216C1906.14 223.667 1904.64 230.333 1901.64 236C1898.97 241.333 1895.47 245.833 1891.14 249.5C1888.47 247.833 1884.47 246.167 1879.14 244.5C1873.8 242.5 1867.97 240.833 1861.64 239.5C1855.3 237.833 1848.8 236.5 1842.14 235.5C1835.8 234.5 1829.97 234 1824.64 234C1813.64 234 1805.14 235.333 1799.14 238C1793.14 240.333 1790.14 244.167 1790.14 249.5C1790.14 253.167 1791.8 256.167 1795.14 258.5C1798.47 260.833 1804.8 263 1814.14 265L1829.64 268.5C1861.64 275.833 1884.3 286 1897.64 299C1911.3 311.667 1918.14 328.167 1918.14 348.5ZM2044.23 337.5C2044.23 346.167 2046.9 352.333 2052.23 356C2057.9 359.667 2065.73 361.5 2075.73 361.5C2080.73 361.5 2085.9 361.167 2091.23 360.5C2096.56 359.5 2101.23 358.333 2105.23 357C2108.23 360.667 2110.73 364.833 2112.73 369.5C2115.06 373.833 2116.23 379.167 2116.23 385.5C2116.23 398.167 2111.4 408.5 2101.73 416.5C2092.4 424.5 2075.73 428.5 2051.73 428.5C2022.4 428.5 1999.73 421.833 1983.73 408.5C1968.06 395.167 1960.23 373.5 1960.23 343.5V129.5C1963.9 128.5 1969.06 127.5 1975.73 126.5C1982.73 125.167 1990.06 124.5 1997.73 124.5C2012.4 124.5 2023.73 127.167 2031.73 132.5C2040.06 137.5 2044.23 148.333 2044.23 165V197H2109.73C2111.73 200.667 2113.56 205.333 2115.23 211C2117.23 216.333 2118.23 222.333 2118.23 229C2118.23 240.667 2115.56 249.167 2110.23 254.5C2105.23 259.5 2098.4 262 2089.73 262H2044.23V337.5Z" fill="#232735"/>
</svg>
